<svg width="1250" height="1024" viewBox="0 0 1250 1024" fill="none" xmlns="http://www.w3.org/2000/svg">
<path fill-rule="evenodd" clip-rule="evenodd" d="M4 -157C4 -155.895 3.10457 -155 2 -155C0.895431 -155 0 -155.895 0 -157C0 -158.105 0.895431 -159 2 -159C3.10457 -159 4 -158.105 4 -157ZM4 11C4 12.1046 3.10457 13 2 13C0.895431 13 0 12.1046 0 11C0 9.89543 0.895431 9 2 9C3.10457 9 4 9.89543 4 11ZM170 -155C171.105 -155 172 -155.895 172 -157C172 -158.105 171.105 -159 170 -159C168.895 -159 168 -158.105 168 -157C168 -155.895 168.895 -155 170 -155ZM172 11C172 12.1046 171.105 13 170 13C168.895 13 168 12.1046 168 11C168 9.89543 168.895 9 170 9C171.105 9 172 9.89543 172 11ZM2 -71C3.10457 -71 4 -71.8954 4 -73C4 -74.1046 3.10457 -75 2 -75C0.895431 -75 0 -74.1046 0 -73C0 -71.8954 0.895431 -71 2 -71ZM4 95C4 96.1046 3.10457 97 2 97C0.895431 97 0 96.1046 0 95C0 93.8954 0.895431 93 2 93C3.10457 93 4 93.8954 4 95ZM170 -71C171.105 -71 172 -71.8954 172 -73C172 -74.1046 171.105 -75 170 -75C168.895 -75 168 -74.1046 168 -73C168 -71.8954 168.895 -71 170 -71ZM172 95C172 96.1046 171.105 97 170 97C168.895 97 168 96.1046 168 95C168 93.8954 168.895 93 170 93C171.105 93 172 93.8954 172 95ZM86 -155C87.1046 -155 88 -155.895 88 -157C88 -158.105 87.1046 -159 86 -159C84.8954 -159 84 -158.105 84 -157C84 -155.895 84.8954 -155 86 -155ZM88 11C88 12.1046 87.1046 13 86 13C84.8954 13 84 12.1046 84 11C84 9.89543 84.8954 9 86 9C87.1046 9 88 9.89543 88 11ZM254 -155C255.105 -155 256 -155.895 256 -157C256 -158.105 255.105 -159 254 -159C252.895 -159 252 -158.105 252 -157C252 -155.895 252.895 -155 254 -155ZM256 11C256 12.1046 255.105 13 254 13C252.895 13 252 12.1046 252 11C252 9.89543 252.895 9 254 9C255.105 9 256 9.89543 256 11ZM86 -71C87.1046 -71 88 -71.8954 88 -73C88 -74.1046 87.1046 -75 86 -75C84.8954 -75 84 -74.1046 84 -73C84 -71.8954 84.8954 -71 86 -71ZM88 95C88 96.1046 87.1046 97 86 97C84.8954 97 84 96.1046 84 95C84 93.8954 84.8954 93 86 93C87.1046 93 88 93.8954 88 95ZM254 -71C255.105 -71 256 -71.8954 256 -73C256 -74.1046 255.105 -75 254 -75C252.895 -75 252 -74.1046 252 -73C252 -71.8954 252.895 -71 254 -71ZM256 95C256 96.1046 255.105 97 254 97C252.895 97 252 96.1046 252 95C252 93.8954 252.895 93 254 93C255.105 93 256 93.8954 256 95ZM5 497C5 498.105 4.10457 499 3 499C1.89543 499 1 498.105 1 497C1 495.895 1.89543 495 3 495C4.10457 495 5 495.895 5 497ZM5 665C5 666.105 4.10457 667 3 667C1.89543 667 1 666.105 1 665C1 663.895 1.89543 663 3 663C4.10457 663 5 663.895 5 665ZM171 499C172.105 499 173 498.105 173 497C173 495.895 172.105 495 171 495C169.895 495 169 495.895 169 497C169 498.105 169.895 499 171 499ZM173 665C173 666.105 172.105 667 171 667C169.895 667 169 666.105 169 665C169 663.895 169.895 663 171 663C172.105 663 173 663.895 173 665ZM3 583C4.10457 583 5 582.105 5 581C5 579.895 4.10457 579 3 579C1.89543 579 1 579.895 1 581C1 582.105 1.89543 583 3 583ZM5 749C5 750.105 4.10457 751 3 751C1.89543 751 1 750.105 1 749C1 747.895 1.89543 747 3 747C4.10457 747 5 747.895 5 749ZM171 583C172.105 583 173 582.105 173 581C173 579.895 172.105 579 171 579C169.895 579 169 579.895 169 581C169 582.105 169.895 583 171 583ZM173 749C173 750.105 172.105 751 171 751C169.895 751 169 750.105 169 749C169 747.895 169.895 747 171 747C172.105 747 173 747.895 173 749ZM87 499C88.1046 499 89 498.105 89 497C89 495.895 88.1046 495 87 495C85.8954 495 85 495.895 85 497C85 498.105 85.8954 499 87 499ZM89 665C89 666.105 88.1046 667 87 667C85.8954 667 85 666.105 85 665C85 663.895 85.8954 663 87 663C88.1046 663 89 663.895 89 665ZM255 499C256.105 499 257 498.105 257 497C257 495.895 256.105 495 255 495C253.895 495 253 495.895 253 497C253 498.105 253.895 499 255 499ZM257 665C257 666.105 256.105 667 255 667C253.895 667 253 666.105 253 665C253 663.895 253.895 663 255 663C256.105 663 257 663.895 257 665ZM87 583C88.1046 583 89 582.105 89 581C89 579.895 88.1046 579 87 579C85.8954 579 85 579.895 85 581C85 582.105 85.8954 583 87 583ZM89 749C89 750.105 88.1046 751 87 751C85.8954 751 85 750.105 85 749C85 747.895 85.8954 747 87 747C88.1046 747 89 747.895 89 749ZM255 583C256.105 583 257 582.105 257 581C257 579.895 256.105 579 255 579C253.895 579 253 579.895 253 581C253 582.105 253.895 583 255 583ZM257 749C257 750.105 256.105 751 255 751C253.895 751 253 750.105 253 749C253 747.895 253.895 747 255 747C256.105 747 257 747.895 257 749ZM658 -155C659.105 -155 660 -155.895 660 -157C660 -158.105 659.105 -159 658 -159C656.895 -159 656 -158.105 656 -157C656 -155.895 656.895 -155 658 -155ZM658 13C659.105 13 660 12.1046 660 11C660 9.89543 659.105 9 658 9C656.895 9 656 9.89543 656 11C656 12.1046 656.895 13 658 13ZM828 -157C828 -155.895 827.105 -155 826 -155C824.895 -155 824 -155.895 824 -157C824 -158.105 824.895 -159 826 -159C827.105 -159 828 -158.105 828 -157ZM826 13C827.105 13 828 12.1046 828 11C828 9.89543 827.105 9 826 9C824.895 9 824 9.89543 824 11C824 12.1046 824.895 13 826 13ZM660 -73C660 -71.8954 659.105 -71 658 -71C656.895 -71 656 -71.8954 656 -73C656 -74.1046 656.895 -75 658 -75C659.105 -75 660 -74.1046 660 -73ZM658 97C659.105 97 660 96.1046 660 95C660 93.8954 659.105 93 658 93C656.895 93 656 93.8954 656 95C656 96.1046 656.895 97 658 97ZM828 -73C828 -71.8954 827.105 -71 826 -71C824.895 -71 824 -71.8954 824 -73C824 -74.1046 824.895 -75 826 -75C827.105 -75 828 -74.1046 828 -73ZM826 97C827.105 97 828 96.1046 828 95C828 93.8954 827.105 93 826 93C824.895 93 824 93.8954 824 95C824 96.1046 824.895 97 826 97ZM744 -157C744 -155.895 743.105 -155 742 -155C740.895 -155 740 -155.895 740 -157C740 -158.105 740.895 -159 742 -159C743.105 -159 744 -158.105 744 -157ZM742 13C743.105 13 744 12.1046 744 11C744 9.89543 743.105 9 742 9C740.895 9 740 9.89543 740 11C740 12.1046 740.895 13 742 13ZM912 -157C912 -155.895 911.105 -155 910 -155C908.895 -155 908 -155.895 908 -157C908 -158.105 908.895 -159 910 -159C911.105 -159 912 -158.105 912 -157ZM910 13C911.105 13 912 12.1046 912 11C912 9.89543 911.105 9 910 9C908.895 9 908 9.89543 908 11C908 12.1046 908.895 13 910 13ZM744 -73C744 -71.8954 743.105 -71 742 -71C740.895 -71 740 -71.8954 740 -73C740 -74.1046 740.895 -75 742 -75C743.105 -75 744 -74.1046 744 -73ZM742 97C743.105 97 744 96.1046 744 95C744 93.8954 743.105 93 742 93C740.895 93 740 93.8954 740 95C740 96.1046 740.895 97 742 97ZM912 -73C912 -71.8954 911.105 -71 910 -71C908.895 -71 908 -71.8954 908 -73C908 -74.1046 908.895 -75 910 -75C911.105 -75 912 -74.1046 912 -73ZM910 97C911.105 97 912 96.1046 912 95C912 93.8954 911.105 93 910 93C908.895 93 908 93.8954 908 95C908 96.1046 908.895 97 910 97ZM661 497C661 498.105 660.105 499 659 499C657.895 499 657 498.105 657 497C657 495.895 657.895 495 659 495C660.105 495 661 495.895 661 497ZM661 665C661 666.105 660.105 667 659 667C657.895 667 657 666.105 657 665C657 663.895 657.895 663 659 663C660.105 663 661 663.895 661 665ZM827 499C828.105 499 829 498.105 829 497C829 495.895 828.105 495 827 495C825.895 495 825 495.895 825 497C825 498.105 825.895 499 827 499ZM829 665C829 666.105 828.105 667 827 667C825.895 667 825 666.105 825 665C825 663.895 825.895 663 827 663C828.105 663 829 663.895 829 665ZM659 583C660.105 583 661 582.105 661 581C661 579.895 660.105 579 659 579C657.895 579 657 579.895 657 581C657 582.105 657.895 583 659 583ZM661 749C661 750.105 660.105 751 659 751C657.895 751 657 750.105 657 749C657 747.895 657.895 747 659 747C660.105 747 661 747.895 661 749ZM827 583C828.105 583 829 582.105 829 581C829 579.895 828.105 579 827 579C825.895 579 825 579.895 825 581C825 582.105 825.895 583 827 583ZM829 749C829 750.105 828.105 751 827 751C825.895 751 825 750.105 825 749C825 747.895 825.895 747 827 747C828.105 747 829 747.895 829 749ZM743 499C744.105 499 745 498.105 745 497C745 495.895 744.105 495 743 495C741.895 495 741 495.895 741 497C741 498.105 741.895 499 743 499ZM745 665C745 666.105 744.105 667 743 667C741.895 667 741 666.105 741 665C741 663.895 741.895 663 743 663C744.105 663 745 663.895 745 665ZM911 499C912.105 499 913 498.105 913 497C913 495.895 912.105 495 911 495C909.895 495 909 495.895 909 497C909 498.105 909.895 499 911 499ZM913 665C913 666.105 912.105 667 911 667C909.895 667 909 666.105 909 665C909 663.895 909.895 663 911 663C912.105 663 913 663.895 913 665ZM743 583C744.105 583 745 582.105 745 581C745 579.895 744.105 579 743 579C741.895 579 741 579.895 741 581C741 582.105 741.895 583 743 583ZM745 749C745 750.105 744.105 751 743 751C741.895 751 741 750.105 741 749C741 747.895 741.895 747 743 747C744.105 747 745 747.895 745 749ZM911 583C912.105 583 913 582.105 913 581C913 579.895 912.105 579 911 579C909.895 579 909 579.895 909 581C909 582.105 909.895 583 911 583ZM913 749C913 750.105 912.105 751 911 751C909.895 751 909 750.105 909 749C909 747.895 909.895 747 911 747C912.105 747 913 747.895 913 749ZM3 172C4.10457 172 5 171.105 5 170C5 168.895 4.10457 168 3 168C1.89543 168 1 168.895 1 170C1 171.105 1.89543 172 3 172ZM3 340C4.10457 340 5 339.105 5 338C5 336.895 4.10457 336 3 336C1.89543 336 1 336.895 1 338C1 339.105 1.89543 340 3 340ZM173 170C173 171.105 172.105 172 171 172C169.895 172 169 171.105 169 170C169 168.895 169.895 168 171 168C172.105 168 173 168.895 173 170ZM171 340C172.105 340 173 339.105 173 338C173 336.895 172.105 336 171 336C169.895 336 169 336.895 169 338C169 339.105 169.895 340 171 340ZM5 254C5 255.105 4.10457 256 3 256C1.89543 256 1 255.105 1 254C1 252.895 1.89543 252 3 252C4.10457 252 5 252.895 5 254ZM3 424C4.10457 424 5 423.105 5 422C5 420.895 4.10457 420 3 420C1.89543 420 1 420.895 1 422C1 423.105 1.89543 424 3 424ZM173 254C173 255.105 172.105 256 171 256C169.895 256 169 255.105 169 254C169 252.895 169.895 252 171 252C172.105 252 173 252.895 173 254ZM171 424C172.105 424 173 423.105 173 422C173 420.895 172.105 420 171 420C169.895 420 169 420.895 169 422C169 423.105 169.895 424 171 424ZM89 170C89 171.105 88.1046 172 87 172C85.8954 172 85 171.105 85 170C85 168.895 85.8954 168 87 168C88.1046 168 89 168.895 89 170ZM87 340C88.1046 340 89 339.105 89 338C89 336.895 88.1046 336 87 336C85.8954 336 85 336.895 85 338C85 339.105 85.8954 340 87 340ZM257 170C257 171.105 256.105 172 255 172C253.895 172 253 171.105 253 170C253 168.895 253.895 168 255 168C256.105 168 257 168.895 257 170ZM255 340C256.105 340 257 339.105 257 338C257 336.895 256.105 336 255 336C253.895 336 253 336.895 253 338C253 339.105 253.895 340 255 340ZM89 254C89 255.105 88.1046 256 87 256C85.8954 256 85 255.105 85 254C85 252.895 85.8954 252 87 252C88.1046 252 89 252.895 89 254ZM87 424C88.1046 424 89 423.105 89 422C89 420.895 88.1046 420 87 420C85.8954 420 85 420.895 85 422C85 423.105 85.8954 424 87 424ZM257 254C257 255.105 256.105 256 255 256C253.895 256 253 255.105 253 254C253 252.895 253.895 252 255 252C256.105 252 257 252.895 257 254ZM255 424C256.105 424 257 423.105 257 422C257 420.895 256.105 420 255 420C253.895 420 253 420.895 253 422C253 423.105 253.895 424 255 424ZM6 824C6 825.105 5.10457 826 4 826C2.89543 826 2 825.105 2 824C2 822.895 2.89543 822 4 822C5.10457 822 6 822.895 6 824ZM6 992C6 993.105 5.10457 994 4 994C2.89543 994 2 993.105 2 992C2 990.895 2.89543 990 4 990C5.10457 990 6 990.895 6 992ZM172 826C173.105 826 174 825.105 174 824C174 822.895 173.105 822 172 822C170.895 822 170 822.895 170 824C170 825.105 170.895 826 172 826ZM174 992C174 993.105 173.105 994 172 994C170.895 994 170 993.105 170 992C170 990.895 170.895 990 172 990C173.105 990 174 990.895 174 992ZM4 910C5.10457 910 6 909.105 6 908C6 906.895 5.10457 906 4 906C2.89543 906 2 906.895 2 908C2 909.105 2.89543 910 4 910ZM6 1076C6 1077.1 5.10457 1078 4 1078C2.89543 1078 2 1077.1 2 1076C2 1074.9 2.89543 1074 4 1074C5.10457 1074 6 1074.9 6 1076ZM172 910C173.105 910 174 909.105 174 908C174 906.895 173.105 906 172 906C170.895 906 170 906.895 170 908C170 909.105 170.895 910 172 910ZM174 1076C174 1077.1 173.105 1078 172 1078C170.895 1078 170 1077.1 170 1076C170 1074.9 170.895 1074 172 1074C173.105 1074 174 1074.9 174 1076ZM88 826C89.1046 826 90 825.105 90 824C90 822.895 89.1046 822 88 822C86.8954 822 86 822.895 86 824C86 825.105 86.8954 826 88 826ZM90 992C90 993.105 89.1046 994 88 994C86.8954 994 86 993.105 86 992C86 990.895 86.8954 990 88 990C89.1046 990 90 990.895 90 992ZM256 826C257.105 826 258 825.105 258 824C258 822.895 257.105 822 256 822C254.895 822 254 822.895 254 824C254 825.105 254.895 826 256 826ZM258 992C258 993.105 257.105 994 256 994C254.895 994 254 993.105 254 992C254 990.895 254.895 990 256 990C257.105 990 258 990.895 258 992ZM88 910C89.1046 910 90 909.105 90 908C90 906.895 89.1046 906 88 906C86.8954 906 86 906.895 86 908C86 909.105 86.8954 910 88 910ZM90 1076C90 1077.1 89.1046 1078 88 1078C86.8954 1078 86 1077.1 86 1076C86 1074.9 86.8954 1074 88 1074C89.1046 1074 90 1074.9 90 1076ZM256 910C257.105 910 258 909.105 258 908C258 906.895 257.105 906 256 906C254.895 906 254 906.895 254 908C254 909.105 254.895 910 256 910ZM258 1076C258 1077.1 257.105 1078 256 1078C254.895 1078 254 1077.1 254 1076C254 1074.9 254.895 1074 256 1074C257.105 1074 258 1074.9 258 1076ZM659 172C660.105 172 661 171.105 661 170C661 168.895 660.105 168 659 168C657.895 168 657 168.895 657 170C657 171.105 657.895 172 659 172ZM659 340C660.105 340 661 339.105 661 338C661 336.895 660.105 336 659 336C657.895 336 657 336.895 657 338C657 339.105 657.895 340 659 340ZM829 170C829 171.105 828.105 172 827 172C825.895 172 825 171.105 825 170C825 168.895 825.895 168 827 168C828.105 168 829 168.895 829 170ZM827 340C828.105 340 829 339.105 829 338C829 336.895 828.105 336 827 336C825.895 336 825 336.895 825 338C825 339.105 825.895 340 827 340ZM661 254C661 255.105 660.105 256 659 256C657.895 256 657 255.105 657 254C657 252.895 657.895 252 659 252C660.105 252 661 252.895 661 254ZM659 424C660.105 424 661 423.105 661 422C661 420.895 660.105 420 659 420C657.895 420 657 420.895 657 422C657 423.105 657.895 424 659 424ZM829 254C829 255.105 828.105 256 827 256C825.895 256 825 255.105 825 254C825 252.895 825.895 252 827 252C828.105 252 829 252.895 829 254ZM827 424C828.105 424 829 423.105 829 422C829 420.895 828.105 420 827 420C825.895 420 825 420.895 825 422C825 423.105 825.895 424 827 424ZM745 170C745 171.105 744.105 172 743 172C741.895 172 741 171.105 741 170C741 168.895 741.895 168 743 168C744.105 168 745 168.895 745 170ZM743 340C744.105 340 745 339.105 745 338C745 336.895 744.105 336 743 336C741.895 336 741 336.895 741 338C741 339.105 741.895 340 743 340ZM913 170C913 171.105 912.105 172 911 172C909.895 172 909 171.105 909 170C909 168.895 909.895 168 911 168C912.105 168 913 168.895 913 170ZM911 340C912.105 340 913 339.105 913 338C913 336.895 912.105 336 911 336C909.895 336 909 336.895 909 338C909 339.105 909.895 340 911 340ZM745 254C745 255.105 744.105 256 743 256C741.895 256 741 255.105 741 254C741 252.895 741.895 252 743 252C744.105 252 745 252.895 745 254ZM743 424C744.105 424 745 423.105 745 422C745 420.895 744.105 420 743 420C741.895 420 741 420.895 741 422C741 423.105 741.895 424 743 424ZM913 254C913 255.105 912.105 256 911 256C909.895 256 909 255.105 909 254C909 252.895 909.895 252 911 252C912.105 252 913 252.895 913 254ZM911 424C912.105 424 913 423.105 913 422C913 420.895 912.105 420 911 420C909.895 420 909 420.895 909 422C909 423.105 909.895 424 911 424ZM662 824C662 825.105 661.105 826 660 826C658.895 826 658 825.105 658 824C658 822.895 658.895 822 660 822C661.105 822 662 822.895 662 824ZM662 992C662 993.105 661.105 994 660 994C658.895 994 658 993.105 658 992C658 990.895 658.895 990 660 990C661.105 990 662 990.895 662 992ZM828 826C829.105 826 830 825.105 830 824C830 822.895 829.105 822 828 822C826.895 822 826 822.895 826 824C826 825.105 826.895 826 828 826ZM830 992C830 993.105 829.105 994 828 994C826.895 994 826 993.105 826 992C826 990.895 826.895 990 828 990C829.105 990 830 990.895 830 992ZM660 910C661.105 910 662 909.105 662 908C662 906.895 661.105 906 660 906C658.895 906 658 906.895 658 908C658 909.105 658.895 910 660 910ZM662 1076C662 1077.1 661.105 1078 660 1078C658.895 1078 658 1077.1 658 1076C658 1074.9 658.895 1074 660 1074C661.105 1074 662 1074.9 662 1076ZM828 910C829.105 910 830 909.105 830 908C830 906.895 829.105 906 828 906C826.895 906 826 906.895 826 908C826 909.105 826.895 910 828 910ZM830 1076C830 1077.1 829.105 1078 828 1078C826.895 1078 826 1077.1 826 1076C826 1074.9 826.895 1074 828 1074C829.105 1074 830 1074.9 830 1076ZM744 826C745.105 826 746 825.105 746 824C746 822.895 745.105 822 744 822C742.895 822 742 822.895 742 824C742 825.105 742.895 826 744 826ZM746 992C746 993.105 745.105 994 744 994C742.895 994 742 993.105 742 992C742 990.895 742.895 990 744 990C745.105 990 746 990.895 746 992ZM912 826C913.105 826 914 825.105 914 824C914 822.895 913.105 822 912 822C910.895 822 910 822.895 910 824C910 825.105 910.895 826 912 826ZM914 992C914 993.105 913.105 994 912 994C910.895 994 910 993.105 910 992C910 990.895 910.895 990 912 990C913.105 990 914 990.895 914 992ZM744 910C745.105 910 746 909.105 746 908C746 906.895 745.105 906 744 906C742.895 906 742 906.895 742 908C742 909.105 742.895 910 744 910ZM746 1076C746 1077.1 745.105 1078 744 1078C742.895 1078 742 1077.1 742 1076C742 1074.9 742.895 1074 744 1074C745.105 1074 746 1074.9 746 1076ZM912 910C913.105 910 914 909.105 914 908C914 906.895 913.105 906 912 906C910.895 906 910 906.895 910 908C910 909.105 910.895 910 912 910ZM914 1076C914 1077.1 913.105 1078 912 1078C910.895 1078 910 1077.1 910 1076C910 1074.9 910.895 1074 912 1074C913.105 1074 914 1074.9 914 1076ZM338 -155C339.105 -155 340 -155.895 340 -157C340 -158.105 339.105 -159 338 -159C336.895 -159 336 -158.105 336 -157C336 -155.895 336.895 -155 338 -155ZM338 13C339.105 13 340 12.1046 340 11C340 9.89543 339.105 9 338 9C336.895 9 336 9.89543 336 11C336 12.1046 336.895 13 338 13ZM508 -157C508 -155.895 507.105 -155 506 -155C504.895 -155 504 -155.895 504 -157C504 -158.105 504.895 -159 506 -159C507.105 -159 508 -158.105 508 -157ZM506 13C507.105 13 508 12.1046 508 11C508 9.89543 507.105 9 506 9C504.895 9 504 9.89543 504 11C504 12.1046 504.895 13 506 13ZM340 -73C340 -71.8954 339.105 -71 338 -71C336.895 -71 336 -71.8954 336 -73C336 -74.1046 336.895 -75 338 -75C339.105 -75 340 -74.1046 340 -73ZM338 97C339.105 97 340 96.1046 340 95C340 93.8954 339.105 93 338 93C336.895 93 336 93.8954 336 95C336 96.1046 336.895 97 338 97ZM508 -73C508 -71.8954 507.105 -71 506 -71C504.895 -71 504 -71.8954 504 -73C504 -74.1046 504.895 -75 506 -75C507.105 -75 508 -74.1046 508 -73ZM506 97C507.105 97 508 96.1046 508 95C508 93.8954 507.105 93 506 93C504.895 93 504 93.8954 504 95C504 96.1046 504.895 97 506 97ZM424 -157C424 -155.895 423.105 -155 422 -155C420.895 -155 420 -155.895 420 -157C420 -158.105 420.895 -159 422 -159C423.105 -159 424 -158.105 424 -157ZM422 13C423.105 13 424 12.1046 424 11C424 9.89543 423.105 9 422 9C420.895 9 420 9.89543 420 11C420 12.1046 420.895 13 422 13ZM592 -157C592 -155.895 591.105 -155 590 -155C588.895 -155 588 -155.895 588 -157C588 -158.105 588.895 -159 590 -159C591.105 -159 592 -158.105 592 -157ZM590 13C591.105 13 592 12.1046 592 11C592 9.89543 591.105 9 590 9C588.895 9 588 9.89543 588 11C588 12.1046 588.895 13 590 13ZM424 -73C424 -71.8954 423.105 -71 422 -71C420.895 -71 420 -71.8954 420 -73C420 -74.1046 420.895 -75 422 -75C423.105 -75 424 -74.1046 424 -73ZM422 97C423.105 97 424 96.1046 424 95C424 93.8954 423.105 93 422 93C420.895 93 420 93.8954 420 95C420 96.1046 420.895 97 422 97ZM592 -73C592 -71.8954 591.105 -71 590 -71C588.895 -71 588 -71.8954 588 -73C588 -74.1046 588.895 -75 590 -75C591.105 -75 592 -74.1046 592 -73ZM590 97C591.105 97 592 96.1046 592 95C592 93.8954 591.105 93 590 93C588.895 93 588 93.8954 588 95C588 96.1046 588.895 97 590 97ZM341 497C341 498.105 340.105 499 339 499C337.895 499 337 498.105 337 497C337 495.895 337.895 495 339 495C340.105 495 341 495.895 341 497ZM341 665C341 666.105 340.105 667 339 667C337.895 667 337 666.105 337 665C337 663.895 337.895 663 339 663C340.105 663 341 663.895 341 665ZM507 499C508.105 499 509 498.105 509 497C509 495.895 508.105 495 507 495C505.895 495 505 495.895 505 497C505 498.105 505.895 499 507 499ZM509 665C509 666.105 508.105 667 507 667C505.895 667 505 666.105 505 665C505 663.895 505.895 663 507 663C508.105 663 509 663.895 509 665ZM339 583C340.105 583 341 582.105 341 581C341 579.895 340.105 579 339 579C337.895 579 337 579.895 337 581C337 582.105 337.895 583 339 583ZM341 749C341 750.105 340.105 751 339 751C337.895 751 337 750.105 337 749C337 747.895 337.895 747 339 747C340.105 747 341 747.895 341 749ZM507 583C508.105 583 509 582.105 509 581C509 579.895 508.105 579 507 579C505.895 579 505 579.895 505 581C505 582.105 505.895 583 507 583ZM509 749C509 750.105 508.105 751 507 751C505.895 751 505 750.105 505 749C505 747.895 505.895 747 507 747C508.105 747 509 747.895 509 749ZM423 499C424.105 499 425 498.105 425 497C425 495.895 424.105 495 423 495C421.895 495 421 495.895 421 497C421 498.105 421.895 499 423 499ZM425 665C425 666.105 424.105 667 423 667C421.895 667 421 666.105 421 665C421 663.895 421.895 663 423 663C424.105 663 425 663.895 425 665ZM591 499C592.105 499 593 498.105 593 497C593 495.895 592.105 495 591 495C589.895 495 589 495.895 589 497C589 498.105 589.895 499 591 499ZM593 665C593 666.105 592.105 667 591 667C589.895 667 589 666.105 589 665C589 663.895 589.895 663 591 663C592.105 663 593 663.895 593 665ZM423 583C424.105 583 425 582.105 425 581C425 579.895 424.105 579 423 579C421.895 579 421 579.895 421 581C421 582.105 421.895 583 423 583ZM425 749C425 750.105 424.105 751 423 751C421.895 751 421 750.105 421 749C421 747.895 421.895 747 423 747C424.105 747 425 747.895 425 749ZM591 583C592.105 583 593 582.105 593 581C593 579.895 592.105 579 591 579C589.895 579 589 579.895 589 581C589 582.105 589.895 583 591 583ZM593 749C593 750.105 592.105 751 591 751C589.895 751 589 750.105 589 749C589 747.895 589.895 747 591 747C592.105 747 593 747.895 593 749ZM994 -155C995.105 -155 996 -155.895 996 -157C996 -158.105 995.105 -159 994 -159C992.895 -159 992 -158.105 992 -157C992 -155.895 992.895 -155 994 -155ZM994 13C995.105 13 996 12.1046 996 11C996 9.89543 995.105 9 994 9C992.895 9 992 9.89543 992 11C992 12.1046 992.895 13 994 13ZM1164 -157C1164 -155.895 1163.1 -155 1162 -155C1160.9 -155 1160 -155.895 1160 -157C1160 -158.105 1160.9 -159 1162 -159C1163.1 -159 1164 -158.105 1164 -157ZM1162 13C1163.1 13 1164 12.1046 1164 11C1164 9.89543 1163.1 9 1162 9C1160.9 9 1160 9.89543 1160 11C1160 12.1046 1160.9 13 1162 13ZM996 -73C996 -71.8954 995.105 -71 994 -71C992.895 -71 992 -71.8954 992 -73C992 -74.1046 992.895 -75 994 -75C995.105 -75 996 -74.1046 996 -73ZM994 97C995.105 97 996 96.1046 996 95C996 93.8954 995.105 93 994 93C992.895 93 992 93.8954 992 95C992 96.1046 992.895 97 994 97ZM1164 -73C1164 -71.8954 1163.1 -71 1162 -71C1160.9 -71 1160 -71.8954 1160 -73C1160 -74.1046 1160.9 -75 1162 -75C1163.1 -75 1164 -74.1046 1164 -73ZM1162 97C1163.1 97 1164 96.1046 1164 95C1164 93.8954 1163.1 93 1162 93C1160.9 93 1160 93.8954 1160 95C1160 96.1046 1160.9 97 1162 97ZM1080 -157C1080 -155.895 1079.1 -155 1078 -155C1076.9 -155 1076 -155.895 1076 -157C1076 -158.105 1076.9 -159 1078 -159C1079.1 -159 1080 -158.105 1080 -157ZM1078 13C1079.1 13 1080 12.1046 1080 11C1080 9.89543 1079.1 9 1078 9C1076.9 9 1076 9.89543 1076 11C1076 12.1046 1076.9 13 1078 13ZM1248 -157C1248 -155.895 1247.1 -155 1246 -155C1244.9 -155 1244 -155.895 1244 -157C1244 -158.105 1244.9 -159 1246 -159C1247.1 -159 1248 -158.105 1248 -157ZM1246 13C1247.1 13 1248 12.1046 1248 11C1248 9.89543 1247.1 9 1246 9C1244.9 9 1244 9.89543 1244 11C1244 12.1046 1244.9 13 1246 13ZM1080 -73C1080 -71.8954 1079.1 -71 1078 -71C1076.9 -71 1076 -71.8954 1076 -73C1076 -74.1046 1076.9 -75 1078 -75C1079.1 -75 1080 -74.1046 1080 -73ZM1078 97C1079.1 97 1080 96.1046 1080 95C1080 93.8954 1079.1 93 1078 93C1076.9 93 1076 93.8954 1076 95C1076 96.1046 1076.9 97 1078 97ZM1248 -73C1248 -71.8954 1247.1 -71 1246 -71C1244.9 -71 1244 -71.8954 1244 -73C1244 -74.1046 1244.9 -75 1246 -75C1247.1 -75 1248 -74.1046 1248 -73ZM1246 97C1247.1 97 1248 96.1046 1248 95C1248 93.8954 1247.1 93 1246 93C1244.9 93 1244 93.8954 1244 95C1244 96.1046 1244.9 97 1246 97ZM997 497C997 498.105 996.105 499 995 499C993.895 499 993 498.105 993 497C993 495.895 993.895 495 995 495C996.105 495 997 495.895 997 497ZM997 665C997 666.105 996.105 667 995 667C993.895 667 993 666.105 993 665C993 663.895 993.895 663 995 663C996.105 663 997 663.895 997 665ZM1163 499C1164.1 499 1165 498.105 1165 497C1165 495.895 1164.1 495 1163 495C1161.9 495 1161 495.895 1161 497C1161 498.105 1161.9 499 1163 499ZM1165 665C1165 666.105 1164.1 667 1163 667C1161.9 667 1161 666.105 1161 665C1161 663.895 1161.9 663 1163 663C1164.1 663 1165 663.895 1165 665ZM995 583C996.105 583 997 582.105 997 581C997 579.895 996.105 579 995 579C993.895 579 993 579.895 993 581C993 582.105 993.895 583 995 583ZM997 749C997 750.105 996.105 751 995 751C993.895 751 993 750.105 993 749C993 747.895 993.895 747 995 747C996.105 747 997 747.895 997 749ZM1163 583C1164.1 583 1165 582.105 1165 581C1165 579.895 1164.1 579 1163 579C1161.9 579 1161 579.895 1161 581C1161 582.105 1161.9 583 1163 583ZM1165 749C1165 750.105 1164.1 751 1163 751C1161.9 751 1161 750.105 1161 749C1161 747.895 1161.9 747 1163 747C1164.1 747 1165 747.895 1165 749ZM1079 499C1080.1 499 1081 498.105 1081 497C1081 495.895 1080.1 495 1079 495C1077.9 495 1077 495.895 1077 497C1077 498.105 1077.9 499 1079 499ZM1081 665C1081 666.105 1080.1 667 1079 667C1077.9 667 1077 666.105 1077 665C1077 663.895 1077.9 663 1079 663C1080.1 663 1081 663.895 1081 665ZM1247 499C1248.1 499 1249 498.105 1249 497C1249 495.895 1248.1 495 1247 495C1245.9 495 1245 495.895 1245 497C1245 498.105 1245.9 499 1247 499ZM1249 665C1249 666.105 1248.1 667 1247 667C1245.9 667 1245 666.105 1245 665C1245 663.895 1245.9 663 1247 663C1248.1 663 1249 663.895 1249 665ZM1079 583C1080.1 583 1081 582.105 1081 581C1081 579.895 1080.1 579 1079 579C1077.9 579 1077 579.895 1077 581C1077 582.105 1077.9 583 1079 583ZM1081 749C1081 750.105 1080.1 751 1079 751C1077.9 751 1077 750.105 1077 749C1077 747.895 1077.9 747 1079 747C1080.1 747 1081 747.895 1081 749ZM1247 583C1248.1 583 1249 582.105 1249 581C1249 579.895 1248.1 579 1247 579C1245.9 579 1245 579.895 1245 581C1245 582.105 1245.9 583 1247 583ZM1249 749C1249 750.105 1248.1 751 1247 751C1245.9 751 1245 750.105 1245 749C1245 747.895 1245.9 747 1247 747C1248.1 747 1249 747.895 1249 749ZM339 172C340.105 172 341 171.105 341 170C341 168.895 340.105 168 339 168C337.895 168 337 168.895 337 170C337 171.105 337.895 172 339 172ZM339 340C340.105 340 341 339.105 341 338C341 336.895 340.105 336 339 336C337.895 336 337 336.895 337 338C337 339.105 337.895 340 339 340ZM509 170C509 171.105 508.105 172 507 172C505.895 172 505 171.105 505 170C505 168.895 505.895 168 507 168C508.105 168 509 168.895 509 170ZM507 340C508.105 340 509 339.105 509 338C509 336.895 508.105 336 507 336C505.895 336 505 336.895 505 338C505 339.105 505.895 340 507 340ZM341 254C341 255.105 340.105 256 339 256C337.895 256 337 255.105 337 254C337 252.895 337.895 252 339 252C340.105 252 341 252.895 341 254ZM339 424C340.105 424 341 423.105 341 422C341 420.895 340.105 420 339 420C337.895 420 337 420.895 337 422C337 423.105 337.895 424 339 424ZM509 254C509 255.105 508.105 256 507 256C505.895 256 505 255.105 505 254C505 252.895 505.895 252 507 252C508.105 252 509 252.895 509 254ZM507 424C508.105 424 509 423.105 509 422C509 420.895 508.105 420 507 420C505.895 420 505 420.895 505 422C505 423.105 505.895 424 507 424ZM425 170C425 171.105 424.105 172 423 172C421.895 172 421 171.105 421 170C421 168.895 421.895 168 423 168C424.105 168 425 168.895 425 170ZM423 340C424.105 340 425 339.105 425 338C425 336.895 424.105 336 423 336C421.895 336 421 336.895 421 338C421 339.105 421.895 340 423 340ZM593 170C593 171.105 592.105 172 591 172C589.895 172 589 171.105 589 170C589 168.895 589.895 168 591 168C592.105 168 593 168.895 593 170ZM591 340C592.105 340 593 339.105 593 338C593 336.895 592.105 336 591 336C589.895 336 589 336.895 589 338C589 339.105 589.895 340 591 340ZM425 254C425 255.105 424.105 256 423 256C421.895 256 421 255.105 421 254C421 252.895 421.895 252 423 252C424.105 252 425 252.895 425 254ZM423 424C424.105 424 425 423.105 425 422C425 420.895 424.105 420 423 420C421.895 420 421 420.895 421 422C421 423.105 421.895 424 423 424ZM593 254C593 255.105 592.105 256 591 256C589.895 256 589 255.105 589 254C589 252.895 589.895 252 591 252C592.105 252 593 252.895 593 254ZM591 424C592.105 424 593 423.105 593 422C593 420.895 592.105 420 591 420C589.895 420 589 420.895 589 422C589 423.105 589.895 424 591 424ZM342 824C342 825.105 341.105 826 340 826C338.895 826 338 825.105 338 824C338 822.895 338.895 822 340 822C341.105 822 342 822.895 342 824ZM342 992C342 993.105 341.105 994 340 994C338.895 994 338 993.105 338 992C338 990.895 338.895 990 340 990C341.105 990 342 990.895 342 992ZM508 826C509.105 826 510 825.105 510 824C510 822.895 509.105 822 508 822C506.895 822 506 822.895 506 824C506 825.105 506.895 826 508 826ZM510 992C510 993.105 509.105 994 508 994C506.895 994 506 993.105 506 992C506 990.895 506.895 990 508 990C509.105 990 510 990.895 510 992ZM340 910C341.105 910 342 909.105 342 908C342 906.895 341.105 906 340 906C338.895 906 338 906.895 338 908C338 909.105 338.895 910 340 910ZM342 1076C342 1077.1 341.105 1078 340 1078C338.895 1078 338 1077.1 338 1076C338 1074.9 338.895 1074 340 1074C341.105 1074 342 1074.9 342 1076ZM508 910C509.105 910 510 909.105 510 908C510 906.895 509.105 906 508 906C506.895 906 506 906.895 506 908C506 909.105 506.895 910 508 910ZM510 1076C510 1077.1 509.105 1078 508 1078C506.895 1078 506 1077.1 506 1076C506 1074.9 506.895 1074 508 1074C509.105 1074 510 1074.9 510 1076ZM424 826C425.105 826 426 825.105 426 824C426 822.895 425.105 822 424 822C422.895 822 422 822.895 422 824C422 825.105 422.895 826 424 826ZM426 992C426 993.105 425.105 994 424 994C422.895 994 422 993.105 422 992C422 990.895 422.895 990 424 990C425.105 990 426 990.895 426 992ZM592 826C593.105 826 594 825.105 594 824C594 822.895 593.105 822 592 822C590.895 822 590 822.895 590 824C590 825.105 590.895 826 592 826ZM594 992C594 993.105 593.105 994 592 994C590.895 994 590 993.105 590 992C590 990.895 590.895 990 592 990C593.105 990 594 990.895 594 992ZM424 910C425.105 910 426 909.105 426 908C426 906.895 425.105 906 424 906C422.895 906 422 906.895 422 908C422 909.105 422.895 910 424 910ZM426 1076C426 1077.1 425.105 1078 424 1078C422.895 1078 422 1077.1 422 1076C422 1074.9 422.895 1074 424 1074C425.105 1074 426 1074.9 426 1076ZM592 910C593.105 910 594 909.105 594 908C594 906.895 593.105 906 592 906C590.895 906 590 906.895 590 908C590 909.105 590.895 910 592 910ZM594 1076C594 1077.1 593.105 1078 592 1078C590.895 1078 590 1077.1 590 1076C590 1074.9 590.895 1074 592 1074C593.105 1074 594 1074.9 594 1076ZM995 172C996.105 172 997 171.105 997 170C997 168.895 996.105 168 995 168C993.895 168 993 168.895 993 170C993 171.105 993.895 172 995 172ZM995 340C996.105 340 997 339.105 997 338C997 336.895 996.105 336 995 336C993.895 336 993 336.895 993 338C993 339.105 993.895 340 995 340ZM1165 170C1165 171.105 1164.1 172 1163 172C1161.9 172 1161 171.105 1161 170C1161 168.895 1161.9 168 1163 168C1164.1 168 1165 168.895 1165 170ZM1163 340C1164.1 340 1165 339.105 1165 338C1165 336.895 1164.1 336 1163 336C1161.9 336 1161 336.895 1161 338C1161 339.105 1161.9 340 1163 340ZM997 254C997 255.105 996.105 256 995 256C993.895 256 993 255.105 993 254C993 252.895 993.895 252 995 252C996.105 252 997 252.895 997 254ZM995 424C996.105 424 997 423.105 997 422C997 420.895 996.105 420 995 420C993.895 420 993 420.895 993 422C993 423.105 993.895 424 995 424ZM1165 254C1165 255.105 1164.1 256 1163 256C1161.9 256 1161 255.105 1161 254C1161 252.895 1161.9 252 1163 252C1164.1 252 1165 252.895 1165 254ZM1163 424C1164.1 424 1165 423.105 1165 422C1165 420.895 1164.1 420 1163 420C1161.9 420 1161 420.895 1161 422C1161 423.105 1161.9 424 1163 424ZM1081 170C1081 171.105 1080.1 172 1079 172C1077.9 172 1077 171.105 1077 170C1077 168.895 1077.9 168 1079 168C1080.1 168 1081 168.895 1081 170ZM1079 340C1080.1 340 1081 339.105 1081 338C1081 336.895 1080.1 336 1079 336C1077.9 336 1077 336.895 1077 338C1077 339.105 1077.9 340 1079 340ZM1249 170C1249 171.105 1248.1 172 1247 172C1245.9 172 1245 171.105 1245 170C1245 168.895 1245.9 168 1247 168C1248.1 168 1249 168.895 1249 170ZM1247 340C1248.1 340 1249 339.105 1249 338C1249 336.895 1248.1 336 1247 336C1245.9 336 1245 336.895 1245 338C1245 339.105 1245.9 340 1247 340ZM1081 254C1081 255.105 1080.1 256 1079 256C1077.9 256 1077 255.105 1077 254C1077 252.895 1077.9 252 1079 252C1080.1 252 1081 252.895 1081 254ZM1079 424C1080.1 424 1081 423.105 1081 422C1081 420.895 1080.1 420 1079 420C1077.9 420 1077 420.895 1077 422C1077 423.105 1077.9 424 1079 424ZM1249 254C1249 255.105 1248.1 256 1247 256C1245.9 256 1245 255.105 1245 254C1245 252.895 1245.9 252 1247 252C1248.1 252 1249 252.895 1249 254ZM1247 424C1248.1 424 1249 423.105 1249 422C1249 420.895 1248.1 420 1247 420C1245.9 420 1245 420.895 1245 422C1245 423.105 1245.9 424 1247 424ZM998 824C998 825.105 997.105 826 996 826C994.895 826 994 825.105 994 824C994 822.895 994.895 822 996 822C997.105 822 998 822.895 998 824ZM998 992C998 993.105 997.105 994 996 994C994.895 994 994 993.105 994 992C994 990.895 994.895 990 996 990C997.105 990 998 990.895 998 992ZM1164 826C1165.1 826 1166 825.105 1166 824C1166 822.895 1165.1 822 1164 822C1162.9 822 1162 822.895 1162 824C1162 825.105 1162.9 826 1164 826ZM1166 992C1166 993.105 1165.1 994 1164 994C1162.9 994 1162 993.105 1162 992C1162 990.895 1162.9 990 1164 990C1165.1 990 1166 990.895 1166 992ZM996 910C997.105 910 998 909.105 998 908C998 906.895 997.105 906 996 906C994.895 906 994 906.895 994 908C994 909.105 994.895 910 996 910ZM998 1076C998 1077.1 997.105 1078 996 1078C994.895 1078 994 1077.1 994 1076C994 1074.9 994.895 1074 996 1074C997.105 1074 998 1074.9 998 1076ZM1164 910C1165.1 910 1166 909.105 1166 908C1166 906.895 1165.1 906 1164 906C1162.9 906 1162 906.895 1162 908C1162 909.105 1162.9 910 1164 910ZM1166 1076C1166 1077.1 1165.1 1078 1164 1078C1162.9 1078 1162 1077.1 1162 1076C1162 1074.9 1162.9 1074 1164 1074C1165.1 1074 1166 1074.9 1166 1076ZM1080 826C1081.1 826 1082 825.105 1082 824C1082 822.895 1081.1 822 1080 822C1078.9 822 1078 822.895 1078 824C1078 825.105 1078.9 826 1080 826ZM1082 992C1082 993.105 1081.1 994 1080 994C1078.9 994 1078 993.105 1078 992C1078 990.895 1078.9 990 1080 990C1081.1 990 1082 990.895 1082 992ZM1248 826C1249.1 826 1250 825.105 1250 824C1250 822.895 1249.1 822 1248 822C1246.9 822 1246 822.895 1246 824C1246 825.105 1246.9 826 1248 826ZM1250 992C1250 993.105 1249.1 994 1248 994C1246.9 994 1246 993.105 1246 992C1246 990.895 1246.9 990 1248 990C1249.1 990 1250 990.895 1250 992ZM1080 910C1081.1 910 1082 909.105 1082 908C1082 906.895 1081.1 906 1080 906C1078.9 906 1078 906.895 1078 908C1078 909.105 1078.9 910 1080 910ZM1082 1076C1082 1077.1 1081.1 1078 1080 1078C1078.9 1078 1078 1077.1 1078 1076C1078 1074.9 1078.9 1074 1080 1074C1081.1 1074 1082 1074.9 1082 1076ZM1248 910C1249.1 910 1250 909.105 1250 908C1250 906.895 1249.1 906 1248 906C1246.9 906 1246 906.895 1246 908C1246 909.105 1246.9 910 1248 910ZM1250 1076C1250 1077.1 1249.1 1078 1248 1078C1246.9 1078 1246 1077.1 1246 1076C1246 1074.9 1246.9 1074 1248 1074C1249.1 1074 1250 1074.9 1250 1076Z" fill="url(#paint0_radial_30_2096)" fill-opacity="0.65"/>
<defs>
<radialGradient id="paint0_radial_30_2096" cx="0" cy="0" r="1" gradientUnits="userSpaceOnUse" gradientTransform="translate(625 790.5) rotate(-90) scale(838.5 847.312)">
<stop stop-color="#827CFF" stop-opacity="0.7"/>
<stop offset="1" stop-color="#4E4B99" stop-opacity="0.09"/>
</radialGradient>
</defs>
</svg>
